<svg width="70" height="70" viewBox="0 0 70 70" fill="none" xmlns="http://www.w3.org/2000/svg">
<rect width="70" height="70" rx="15" fill="#334EAC"/>
<path d="M40.8038 29.9969L43.2787 32.4719C45.1444 34.3375 45.8006 30.8969 48.405 30.4656C49.2788 30.3194 50.0494 30.0231 50.3794 29.0556C50.6719 28.2006 50.34 27.3962 49.3031 26.3594L46.6875 23.7456M32.625 37.375L51.375 18.625M26.0625 52.375C27.1705 52.375 28.2677 52.1568 29.2914 51.7327C30.3151 51.3087 31.2452 50.6872 32.0287 49.9037C32.8122 49.1202 33.4337 48.1901 33.8577 47.1664C34.2818 46.1427 34.5 45.0455 34.5 43.9375C34.5 42.8295 34.2818 41.7323 33.8577 40.7086C33.4337 39.6849 32.8122 38.7548 32.0287 37.9713C31.2452 37.1878 30.3151 36.5663 29.2914 36.1423C28.2677 35.7182 27.1705 35.5 26.0625 35.5C23.8247 35.5 21.6786 36.3889 20.0963 37.9713C18.5139 39.5536 17.625 41.6997 17.625 43.9375C17.625 46.1753 18.5139 48.3214 20.0963 49.9037C21.6786 51.4861 23.8247 52.375 26.0625 52.375Z" stroke="white" stroke-width="4" stroke-linecap="round" stroke-linejoin="round"/>
</svg>
