<svg width="72" height="72" viewBox="0 0 72 72" fill="none" xmlns="http://www.w3.org/2000/svg">
<circle cx="36" cy="36" r="36" fill="white"/>
<path d="M50.2237 21.9792C50.0326 21.7073 49.7762 21.4881 49.4778 21.3427C49.1798 21.1975 48.8502 21.1308 48.5196 21.149C47.0152 21.1683 45.5111 21.1656 44.0025 21.1629C43.472 21.1619 42.9409 21.161 42.4091 21.161C41.9069 21.161 41.4051 21.1616 40.9038 21.1621C39.3021 21.164 37.7047 21.1658 36.1099 21.1488L36.1083 21.1488C35.7951 21.1465 35.4366 21.1995 35.1711 21.4579C34.9008 21.7209 34.8434 22.0818 34.8514 22.408C34.8606 22.9292 34.8576 23.4455 34.8545 23.9686C34.8529 24.2337 34.8513 24.5006 34.8513 24.7708H34.8512L34.8514 24.7821C34.8555 24.959 34.8636 25.1347 34.8938 25.288C34.925 25.4466 34.9893 25.6339 35.1458 25.7871C35.3012 25.9392 35.4891 26.0003 35.6469 26.0299C35.8009 26.0587 35.9781 26.0664 36.1588 26.0699L36.1588 26.07H36.1687H36.1697H36.1708H36.1719H36.1729H36.174H36.175H36.1761H36.1771H36.1782H36.1792H36.1803H36.1814H36.1824H36.1835H36.1845H36.1856H36.1866H36.1877H36.1888H36.1898H36.1909H36.1919H36.193H36.194H36.1951H36.1961H36.1972H36.1983H36.1993H36.2004H36.2014H36.2025H36.2035H36.2046H36.2057H36.2067H36.2078H36.2088H36.2099H36.2109H36.212H36.2131H36.2141H36.2152H36.2162H36.2173H36.2183H36.2194H36.2204H36.2215H36.2226H36.2236H36.2247H36.2257H36.2268H36.2278H36.2289H36.23H36.231H36.2321H36.2331H36.2342H36.2352H36.2363H36.2373H36.2384H36.2395H36.2405H36.2416H36.2426H36.2437H36.2447H36.2458H36.2469H36.2479H36.249H36.25H36.2511H36.2521H36.2532H36.2543H36.2553H36.2564H36.2574H36.2585H36.2595H36.2606H36.2616H36.2627H36.2638H36.2648H36.2659H36.2669H36.268H36.269H36.2701H36.2712H36.2722H36.2733H36.2743H36.2754H36.2764H36.2775H36.2786H36.2796H36.2807H36.2817H36.2828H36.2838H36.2849H36.2859H36.287H36.2881H36.2891H36.2902H36.2912H36.2923H36.2933H36.2944H36.2955H36.2965H36.2976H36.2986H36.2997H36.3007H36.3018H36.3028H36.3039H36.305H36.306H36.3071H36.3081H36.3092H36.3102H36.3113H36.3124H36.3134H36.3145H36.3155H36.3166H36.3176H36.3187H36.3198H36.3208H36.3219H36.3229H36.324H36.325H36.3261H36.3271H36.3282H36.3293H36.3303H36.3314H36.3324H36.3335H36.3345H36.3356H36.3367H36.3377H36.3388H36.3398H36.3409H36.3419H36.343H36.3441H36.3451H36.3462H36.3472H36.3483H36.3493H36.3504H36.3514H36.3525H36.3536H36.3546H36.3557H36.3567H36.3578H36.3588H36.3599H36.361H36.362H36.3631H36.3641H36.3652H36.3662H36.3673H36.3683H36.3694H36.3705H36.3715H36.3726H36.3736H36.3747H36.3757H36.3768H36.3779H36.3789H36.38H36.381H36.3821H36.3831H36.3842H36.3853H36.3863H36.3874H36.3884H36.3895H36.3905H36.3916H36.3926H36.3937H36.3948H36.3958H36.3969H36.3979H36.399H36.4H36.4011H36.4022H36.4032H36.4043H36.4053H36.4064H36.4074H36.4085H36.4096H36.4106H36.4117H36.4127H36.4138H36.4148H36.4159H36.4169H36.418H36.4191H36.4201H36.4212H36.4222H36.4233H36.4243H36.4254H36.4265H36.4275H36.4286H36.4296H36.4307H36.4317H36.4328H36.4338H36.4349H36.436H36.437H36.4381H36.4391H36.4402H36.4412H36.4423H36.4434H36.4444H36.4455H36.4465H36.4476H36.4486H36.4497H36.4508H36.4518H36.4529H36.4539H36.455H36.456H36.4571H36.4581H36.4592H36.4603H36.4613H36.4624H36.4634H36.4645H36.4655H36.4666H36.4677H36.4687H36.4698H36.4708H36.4719H36.4729H36.474H36.4751H36.4761H36.4772H36.4782H36.4793H36.4803H36.4814H36.4824H36.4835H36.4846H36.4856H36.4867H36.4877H36.4888H36.4898H36.4909H36.492H36.493H36.4941H36.4951H36.4962H36.4972H36.4983H36.4993H36.5004H36.5015H36.5025H36.5036H36.5046H36.5057H36.5067H36.5078H36.5089H36.5099H36.511H36.512H36.5131H36.5141H36.5152H36.5163H36.5173H36.5184H36.5194H36.5205H36.5215H36.5226H36.5236H36.5247H36.5258H36.5268H36.5279H36.5289H36.53H36.531H36.5321H36.5332H36.5342H36.5353H36.5363H36.5374H36.5384H36.5395H36.5405H36.5416H36.5427H36.5437H36.5448H36.5458H36.5469H36.5479H36.549H36.5501H36.5511H36.5522H36.5532H36.5543H36.5553H36.5564H36.5575H36.5585H36.5596H36.5606H36.5617H36.5627H36.5638H36.5648H36.5659H36.567H36.568H36.5691H36.5701H36.5712H36.5722H36.5733H36.5744H36.5754H36.5765H36.5775H36.5786H36.5796H36.5807H36.5818H36.5828H36.5839H36.5849H36.586H36.587H36.5881H36.5891H36.5902H36.5913H36.5923H36.5934H36.5944H36.5955H36.5965H36.5976H36.5987H36.5997H36.6008H36.6018H36.6029H36.6039H36.605H36.606H36.6071H36.6082H36.6092H36.6103H36.6113H36.6124H36.6134H36.6145H36.6156H36.6166H36.6177H36.6187H36.6198H36.6208H36.6219H36.623H36.624H36.6251H36.6261H36.6272H36.6282H36.6293H36.6303H36.6314H36.6325H36.6335H36.6346H36.6356H36.6367H36.6377H36.6388H36.6399H36.6409H36.642H36.643H36.6441H36.6451H36.6462H36.6473H36.6483H36.6494H36.6504H36.6515H36.6525H36.6536H36.6546H36.6557H36.6568H36.6578H36.6589H36.6599H36.661H36.662H36.6631H36.6642H36.6652H36.6663H36.6673H36.6684H36.6694H36.6705H36.6715H36.6726H36.6737H36.6747H36.6758H36.6768H36.6779H36.6789H36.68H36.6811H36.6821H36.6832H36.6842H36.6853H36.6863H36.6874H36.6885H36.6895H36.6906H36.6916H36.6927H36.6937H36.6948H36.6958H36.6969H36.698H36.699H36.7001H36.7011H36.7022H36.7032H36.7043H36.7054H36.7064H36.7075H36.7085H36.7096C37.5716 26.07 38.434 26.0711 39.2967 26.0722C41.7783 26.0753 44.2623 26.0784 46.7465 26.0558C47.0389 26.056 47.2202 26.0988 47.3465 26.1677C47.4636 26.2315 47.5815 26.3441 47.6955 26.5827L48.1467 26.3672L47.6955 26.5827C47.8227 26.8491 47.964 27.1103 48.0981 27.3583C48.1274 27.4123 48.1563 27.4657 48.1846 27.5184C48.3463 27.8192 48.4941 28.1043 48.6138 28.3954L48.6138 28.3954L48.6159 28.4003C49.358 30.1509 49.7609 32.03 49.8024 33.935C49.8038 34.0272 49.8052 34.1192 49.8067 34.2109C49.8369 36.0829 49.8655 37.862 49.3526 39.5692C47.6602 45.1999 44.1234 48.8203 38.3931 50.0816L38.3908 50.0821C35.9623 50.6286 33.4345 50.5165 31.0624 49.757L31.0613 49.7566C27.0996 48.498 24.2078 46.0046 22.4348 42.1809C21.6492 40.4823 21.2574 38.6898 21.0042 36.7849L21.0041 36.7843C20.7058 34.5626 21.0284 32.423 21.5932 30.2612C22.1489 28.1564 23.2283 26.2317 24.7276 24.6708L24.7293 24.669C24.845 24.5474 25.0155 24.3463 25.0574 24.0758C25.1071 23.7553 24.9616 23.4891 24.76 23.2929L50.2237 21.9792ZM50.2237 21.9792C51.8398 24.1098 53.0108 26.5507 53.6657 29.1533C53.6658 29.1536 53.6659 29.1539 53.666 29.1542L53.1811 29.2762L50.2237 21.9792ZM35.3513 22.3974C35.3373 21.8496 35.5637 21.6448 36.1046 21.6488C37.7026 21.6658 39.3041 21.664 40.9064 21.6621C41.4073 21.6616 41.9082 21.661 42.4091 21.661C42.9389 21.661 43.4687 21.6619 43.9985 21.6629C45.512 21.6656 47.0252 21.6684 48.5373 21.6488C48.7859 21.6334 49.0343 21.6828 49.2587 21.7921C49.4832 21.9015 49.6762 22.0673 49.8195 22.2736L35.3513 22.3974ZM50.2212 48.3302C53.0515 44.7358 54.2922 40.5328 54.4819 36.0284L24.7598 23.2926C24.1262 22.6754 23.494 22.0555 22.8631 21.4329L22.8623 21.4321C22.6765 21.2496 22.4168 21.0833 22.0921 21.1014C21.7712 21.1194 21.5313 21.3098 21.3648 21.5041L21.3642 21.5049C21.2185 21.6757 21.0606 21.8528 20.8984 22.0348C20.5856 22.3856 20.257 22.7543 19.9693 23.13L19.9689 23.1305C17.6586 26.156 16.7019 29.6743 16.3884 33.3303C16.1694 35.7916 16.3571 38.2727 16.9437 40.6717L16.9441 40.6731C17.9641 44.7922 19.9743 48.2955 23.2318 51.0645L23.232 51.0646C26.3497 53.7121 29.9637 55.0488 33.9318 55.3768L33.934 55.377C36.3356 55.5649 38.7506 55.2967 41.0548 54.5865C44.6807 53.5193 47.8854 51.3315 50.2212 48.3302Z" fill="#334EAC" stroke="#1FA1CB"/>
<path d="M28.1906 36.587C28.1248 34.9974 28.4664 33.4172 29.1831 31.9958C29.5999 31.1733 30.1304 30.376 31.168 30.3868C32.1749 30.3868 32.6621 31.1967 33.1187 31.976C33.2552 32.1783 33.321 32.4198 33.306 32.6632C33.291 32.9065 33.196 33.1382 33.0357 33.3223C32.8101 33.6246 32.599 33.9396 32.3951 34.2563C32.1912 34.5731 32.2327 34.7873 32.6333 34.8809C32.87 34.964 33.111 35.0349 33.355 35.0932C33.965 35.167 34.0768 35.5486 34.0931 36.0795C34.1671 37.8523 34.1057 39.5999 33.42 41.2719C33.2072 41.8456 32.9025 42.3811 32.5178 42.8574C31.7274 43.7699 30.522 43.7681 29.7623 42.8251C29.0405 41.9414 28.6923 40.8885 28.418 39.7978C28.1798 38.8584 28.2141 37.9081 28.1906 36.587Z" fill="black"/>
<path d="M37.1516 36.4967C37.0857 34.907 37.4273 33.3269 38.144 31.9055C38.5609 31.083 39.0914 30.2857 40.1289 30.2965C41.1359 30.2965 41.6231 31.1064 42.0796 31.8857C42.2161 32.088 42.282 32.3295 42.267 32.5728C42.252 32.8162 42.1569 33.0479 41.9966 33.2319C41.771 33.5343 41.5599 33.8492 41.356 34.166C41.1521 34.4828 41.1936 34.6969 41.5942 34.7905C41.831 34.8736 42.0719 34.9445 42.316 35.0029C42.9259 35.0767 43.0378 35.4582 43.054 35.9892C43.128 37.762 43.0666 39.5095 42.3809 41.1815C42.1681 41.7552 41.8634 42.2907 41.4787 42.7671C40.6883 43.6796 39.4829 43.6778 38.7233 42.7347C38.0015 41.851 37.6532 40.7982 37.3789 39.7075C37.1407 38.768 37.175 37.8177 37.1516 36.4967Z" fill="black"/>
</svg>
