<svg width="73" height="72" viewBox="0 0 73 72" fill="none" xmlns="http://www.w3.org/2000/svg">
<circle cx="36.4883" cy="36" r="36" fill="#7096D1"/>
<path d="M50.712 21.9792C50.5209 21.7073 50.2645 21.4881 49.9661 21.3427C49.6681 21.1975 49.3385 21.1308 49.0078 21.149C47.5035 21.1683 45.9994 21.1656 44.4907 21.1629C43.9602 21.1619 43.4292 21.161 42.8974 21.161C42.3952 21.161 41.8934 21.1616 41.3921 21.1621C39.7904 21.164 38.193 21.1658 36.5982 21.1488L36.5966 21.1488C36.2834 21.1465 35.9249 21.1995 35.6594 21.4579C35.3891 21.7209 35.3316 22.0818 35.3397 22.408C35.3489 22.9292 35.3459 23.4455 35.3428 23.9686C35.3412 24.2337 35.3396 24.5006 35.3396 24.7708H35.3395L35.3397 24.7821C35.3437 24.959 35.3519 25.1347 35.3821 25.288C35.4133 25.4466 35.4776 25.6339 35.6341 25.7871C35.7895 25.9392 35.9774 26.0003 36.1352 26.0299C36.2892 26.0587 36.4664 26.0664 36.6471 26.0699L36.6471 26.07H36.657H36.658H36.6591H36.6601H36.6612H36.6622H36.6633H36.6644H36.6654H36.6665H36.6675H36.6686H36.6696H36.6707H36.6718H36.6728H36.6739H36.6749H36.676H36.677H36.6781H36.6791H36.6802H36.6813H36.6823H36.6834H36.6844H36.6855H36.6865H36.6876H36.6887H36.6897H36.6908H36.6918H36.6929H36.6939H36.695H36.6961H36.6971H36.6982H36.6992H36.7003H36.7013H36.7024H36.7034H36.7045H36.7056H36.7066H36.7077H36.7087H36.7098H36.7108H36.7119H36.713H36.714H36.7151H36.7161H36.7172H36.7182H36.7193H36.7203H36.7214H36.7225H36.7235H36.7246H36.7256H36.7267H36.7277H36.7288H36.7299H36.7309H36.732H36.733H36.7341H36.7351H36.7362H36.7373H36.7383H36.7394H36.7404H36.7415H36.7425H36.7436H36.7446H36.7457H36.7468H36.7478H36.7489H36.7499H36.751H36.752H36.7531H36.7542H36.7552H36.7563H36.7573H36.7584H36.7594H36.7605H36.7615H36.7626H36.7637H36.7647H36.7658H36.7668H36.7679H36.7689H36.77H36.7711H36.7721H36.7732H36.7742H36.7753H36.7763H36.7774H36.7785H36.7795H36.7806H36.7816H36.7827H36.7837H36.7848H36.7858H36.7869H36.788H36.789H36.7901H36.7911H36.7922H36.7932H36.7943H36.7954H36.7964H36.7975H36.7985H36.7996H36.8006H36.8017H36.8028H36.8038H36.8049H36.8059H36.807H36.808H36.8091H36.8101H36.8112H36.8123H36.8133H36.8144H36.8154H36.8165H36.8175H36.8186H36.8197H36.8207H36.8218H36.8228H36.8239H36.8249H36.826H36.8271H36.8281H36.8292H36.8302H36.8313H36.8323H36.8334H36.8344H36.8355H36.8366H36.8376H36.8387H36.8397H36.8408H36.8418H36.8429H36.844H36.845H36.8461H36.8471H36.8482H36.8492H36.8503H36.8513H36.8524H36.8535H36.8545H36.8556H36.8566H36.8577H36.8587H36.8598H36.8609H36.8619H36.863H36.864H36.8651H36.8661H36.8672H36.8683H36.8693H36.8704H36.8714H36.8725H36.8735H36.8746H36.8756H36.8767H36.8778H36.8788H36.8799H36.8809H36.882H36.883H36.8841H36.8852H36.8862H36.8873H36.8883H36.8894H36.8904H36.8915H36.8926H36.8936H36.8947H36.8957H36.8968H36.8978H36.8989H36.8999H36.901H36.9021H36.9031H36.9042H36.9052H36.9063H36.9073H36.9084H36.9095H36.9105H36.9116H36.9126H36.9137H36.9147H36.9158H36.9168H36.9179H36.919H36.92H36.9211H36.9221H36.9232H36.9242H36.9253H36.9264H36.9274H36.9285H36.9295H36.9306H36.9316H36.9327H36.9338H36.9348H36.9359H36.9369H36.938H36.939H36.9401H36.9411H36.9422H36.9433H36.9443H36.9454H36.9464H36.9475H36.9485H36.9496H36.9507H36.9517H36.9528H36.9538H36.9549H36.9559H36.957H36.958H36.9591H36.9602H36.9612H36.9623H36.9633H36.9644H36.9654H36.9665H36.9676H36.9686H36.9697H36.9707H36.9718H36.9728H36.9739H36.975H36.976H36.9771H36.9781H36.9792H36.9802H36.9813H36.9823H36.9834H36.9845H36.9855H36.9866H36.9876H36.9887H36.9897H36.9908H36.9919H36.9929H36.994H36.995H36.9961H36.9971H36.9982H36.9993H37.0003H37.0014H37.0024H37.0035H37.0045H37.0056H37.0066H37.0077H37.0088H37.0098H37.0109H37.0119H37.013H37.014H37.0151H37.0162H37.0172H37.0183H37.0193H37.0204H37.0214H37.0225H37.0235H37.0246H37.0257H37.0267H37.0278H37.0288H37.0299H37.0309H37.032H37.0331H37.0341H37.0352H37.0362H37.0373H37.0383H37.0394H37.0405H37.0415H37.0426H37.0436H37.0447H37.0457H37.0468H37.0478H37.0489H37.05H37.051H37.0521H37.0531H37.0542H37.0552H37.0563H37.0574H37.0584H37.0595H37.0605H37.0616H37.0626H37.0637H37.0647H37.0658H37.0669H37.0679H37.069H37.07H37.0711H37.0721H37.0732H37.0743H37.0753H37.0764H37.0774H37.0785H37.0795H37.0806H37.0817H37.0827H37.0838H37.0848H37.0859H37.0869H37.088H37.089H37.0901H37.0912H37.0922H37.0933H37.0943H37.0954H37.0964H37.0975H37.0986H37.0996H37.1007H37.1017H37.1028H37.1038H37.1049H37.106H37.107H37.1081H37.1091H37.1102H37.1112H37.1123H37.1133H37.1144H37.1155H37.1165H37.1176H37.1186H37.1197H37.1207H37.1218H37.1229H37.1239H37.125H37.126H37.1271H37.1281H37.1292H37.1302H37.1313H37.1324H37.1334H37.1345H37.1355H37.1366H37.1376H37.1387H37.1398H37.1408H37.1419H37.1429H37.144H37.145H37.1461H37.1472H37.1482H37.1493H37.1503H37.1514H37.1524H37.1535H37.1545H37.1556H37.1567H37.1577H37.1588H37.1598H37.1609H37.1619H37.163H37.1641H37.1651H37.1662H37.1672H37.1683H37.1693H37.1704H37.1715H37.1725H37.1736H37.1746H37.1757H37.1767H37.1778H37.1788H37.1799H37.181H37.182H37.1831H37.1841H37.1852H37.1862H37.1873H37.1884H37.1894H37.1905H37.1915H37.1926H37.1936H37.1947H37.1958H37.1968H37.1979C38.0599 26.07 38.9223 26.0711 39.785 26.0722C42.2666 26.0753 44.7506 26.0784 47.2348 26.0558C47.5272 26.056 47.7085 26.0988 47.8348 26.1677C47.9519 26.2315 48.0698 26.3441 48.1838 26.5827L48.6349 26.3672L48.1838 26.5827C48.311 26.8491 48.4523 27.1103 48.5864 27.3583C48.6157 27.4123 48.6445 27.4657 48.6729 27.5184C48.8346 27.8192 48.9824 28.1043 49.1021 28.3954L49.1021 28.3954L49.1042 28.4003C49.8463 30.1509 50.2492 32.03 50.2906 33.935C50.2921 34.0272 50.2935 34.1192 50.295 34.2109C50.3251 36.0829 50.3538 37.862 49.8409 39.5692C48.1485 45.1999 44.6117 48.8203 38.8814 50.0816L38.8791 50.0821C36.4506 50.6286 33.9228 50.5165 31.5507 49.757L31.5496 49.7566C27.5879 48.498 24.6961 46.0046 22.9231 42.1809C22.1375 40.4823 21.7457 38.6898 21.4925 36.7849L21.4924 36.7843C21.1941 34.5626 21.5167 32.423 22.0814 30.2612C22.6372 28.1564 23.7166 26.2317 25.2159 24.6708L25.2176 24.669C25.3333 24.5474 25.5037 24.3463 25.5457 24.0758C25.5954 23.7553 25.4498 23.4891 25.2482 23.2929L50.712 21.9792ZM50.712 21.9792C52.3281 24.1098 53.4991 26.5507 54.154 29.1533C54.1541 29.1536 54.1542 29.1539 54.1542 29.1542L53.6693 29.2762L50.712 21.9792ZM35.8396 22.3974C35.8256 21.8496 36.052 21.6448 36.5929 21.6488C38.1909 21.6658 39.7924 21.664 41.3947 21.6621C41.8956 21.6616 42.3965 21.661 42.8974 21.661C43.4272 21.661 43.957 21.6619 44.4867 21.6629C46.0003 21.6656 47.5135 21.6684 49.0256 21.6488C49.2742 21.6334 49.5226 21.6828 49.747 21.7921C49.9715 21.9015 50.1645 22.0673 50.3077 22.2736L35.8396 22.3974ZM50.7095 48.3302C53.5398 44.7358 54.7805 40.5328 54.9702 36.0284L25.248 23.2926C24.6145 22.6754 23.9823 22.0555 23.3514 21.4329L23.3506 21.4321C23.1648 21.2496 22.9051 21.0833 22.5804 21.1014C22.2595 21.1194 22.0195 21.3098 21.8531 21.5041L21.8525 21.5049C21.7068 21.6757 21.5489 21.8528 21.3867 22.0348C21.0739 22.3856 20.7452 22.7543 20.4576 23.13L20.4572 23.1305C18.1469 26.156 17.1902 29.6743 16.8767 33.3303C16.6577 35.7916 16.8454 38.2727 17.432 40.6717L17.4324 40.6731C18.4524 44.7922 20.4626 48.2955 23.7201 51.0645L23.7203 51.0646C26.8379 53.7121 30.452 55.0488 34.4201 55.3768L34.4223 55.377C36.8239 55.5649 39.2389 55.2967 41.543 54.5865C45.1689 53.5193 48.3737 51.3315 50.7095 48.3302Z" fill="#334EAC" stroke="#334EAC"/>
<path d="M28.6789 36.587C28.6131 34.9974 28.9546 33.4172 29.6714 31.9958C30.0882 31.1733 30.6187 30.376 31.6563 30.3868C32.6632 30.3868 33.1504 31.1967 33.6069 31.976C33.7435 32.1783 33.8093 32.4198 33.7943 32.6632C33.7793 32.9065 33.6843 33.1382 33.5239 33.3223C33.2984 33.6246 33.0872 33.9396 32.8833 34.2563C32.6794 34.5731 32.7209 34.7873 33.1215 34.8809C33.3583 34.964 33.5992 35.0349 33.8433 35.0932C34.4532 35.167 34.5651 35.5486 34.5814 36.0795C34.6553 37.8523 34.594 39.5999 33.9083 41.2719C33.6955 41.8456 33.3908 42.3811 33.006 42.8574C32.2157 43.7699 31.0103 43.7681 30.2506 42.8251C29.5288 41.9414 29.1805 40.8885 28.9063 39.7978C28.6681 38.8584 28.7024 37.9081 28.6789 36.587Z" fill="black"/>
<path d="M37.6398 36.4967C37.574 34.907 37.9156 33.3269 38.6323 31.9055C39.0491 31.083 39.5797 30.2857 40.6172 30.2965C41.6241 30.2965 42.1113 31.1064 42.5679 31.8857C42.7044 32.088 42.7702 32.3295 42.7552 32.5728C42.7402 32.8162 42.6452 33.0479 42.4849 33.2319C42.2593 33.5343 42.0482 33.8492 41.8443 34.166C41.6404 34.4828 41.6819 34.6969 42.0825 34.7905C42.3193 34.8736 42.5602 34.9445 42.8043 35.0029C43.4142 35.0767 43.5261 35.4582 43.5423 35.9892C43.6163 37.762 43.5549 39.5095 42.8692 41.1815C42.6564 41.7552 42.3517 42.2907 41.967 42.7671C41.1766 43.6796 39.9712 43.6778 39.2115 42.7347C38.4897 41.851 38.1415 40.7982 37.8672 39.7075C37.629 38.768 37.6633 37.8177 37.6398 36.4967Z" fill="black"/>
</svg>
