<svg width="20" height="16" viewBox="0 0 20 16" fill="none" xmlns="http://www.w3.org/2000/svg">
<path d="M1 3.99973L7.51457 8.34347C8.41336 8.94173 8.86228 9.24133 9.34761 9.358C9.77694 9.46067 10.224 9.46067 10.6524 9.358C11.1377 9.24133 11.5866 8.94173 12.4854 8.34347L19 3.99973M5.47993 15H14.5201C16.088 15 16.872 15 17.4712 14.6948C17.9977 14.4262 18.4257 13.9979 18.6939 13.4712C19 12.872 19 12.088 19 10.52V5.48C19 3.912 19 3.128 18.6948 2.5288C18.4264 2.00197 17.998 1.57364 17.4712 1.3052C16.872 1 16.088 1 14.5201 1H5.47993C3.91196 1 3.12797 1 2.52878 1.3052C2.0023 1.5738 1.57432 2.00211 1.30613 2.5288C1 3.128 1 3.912 1 5.48V10.52C1 12.088 1 12.872 1.3052 13.4712C1.57363 13.998 2.00195 14.4264 2.52878 14.6948C3.12797 15 3.91196 15 5.47993 15Z" stroke="#334EAC" stroke-width="1.5" stroke-linecap="round" stroke-linejoin="round"/>
</svg>
