<svg width="90" height="90" viewBox="0 0 90 90" fill="none" xmlns="http://www.w3.org/2000/svg">
<path d="M78.75 45C78.75 49.4321 77.877 53.8208 76.1809 57.9156C74.4848 62.0103 71.9988 65.7309 68.8649 68.8649C65.7309 71.9988 62.0103 74.4848 57.9156 76.1809C53.8208 77.877 49.4321 78.75 45 78.75C40.5679 78.75 36.1792 77.877 32.0844 76.1809C27.9897 74.4848 24.2691 71.9988 21.1351 68.8649C18.0012 65.7309 15.5152 62.0103 13.8191 57.9156C12.123 53.8208 11.25 49.4321 11.25 45C11.25 36.0489 14.8058 27.4645 21.1351 21.1351C27.4645 14.8058 36.0489 11.25 45 11.25C53.9511 11.25 62.5355 14.8058 68.8649 21.1351C75.1942 27.4645 78.75 36.0489 78.75 45Z" stroke="#334EAC" stroke-width="8" stroke-linecap="round" stroke-linejoin="round"/>
<path d="M48.75 11.4302C46.3707 13.4302 44.5258 15.9903 43.3815 18.8803C42.2372 21.7703 41.8293 24.8994 42.1945 27.9861C42.5597 31.0729 43.6866 34.0204 45.4737 36.5635C47.2608 39.1067 49.6521 41.1656 52.4325 42.5552C60 46.3539 62.8913 41.2352 66.9863 43.9952C69.6488 45.7877 70.35 49.3952 68.5613 52.0539C66.6825 54.8364 63.75 56.2502 64.2563 60.8139C64.545 63.3902 66.1275 65.6064 68.175 67.5002M15 34.8002C19.2033 35.8195 22.9225 38.2663 25.5225 41.7227C28.3044 45.397 29.6293 49.9703 29.2425 54.5627C29.0475 56.9102 30.5775 59.2802 32.5462 60.5739C33.8497 61.428 34.9392 62.5703 35.7307 63.9127C36.5221 65.255 36.9943 66.7614 37.1106 68.3154C37.227 69.8693 36.9844 71.4292 36.4017 72.8744C35.819 74.3197 34.9117 75.6115 33.75 76.6502" stroke="#334EAC" stroke-width="8" stroke-linecap="round" stroke-linejoin="round"/>
</svg>
