<svg width="90" height="90" viewBox="0 0 90 90" fill="none" xmlns="http://www.w3.org/2000/svg">
<path d="M28.613 28.6125L39.8855 39.885M11.408 16.275L21.218 50.6138C24.1355 60.825 32.2167 67.8638 42.833 67.8638C44.4289 67.8595 46.0192 67.6733 47.573 67.3088C49.043 66.9713 50.618 67.305 51.6867 68.37L60.9117 77.595C62.4492 79.1325 64.943 79.1325 66.4805 77.595L77.5955 66.4763C77.9617 66.1106 78.2523 65.6762 78.4505 65.1981C78.6487 64.7201 78.7508 64.2076 78.7508 63.69C78.7508 63.1725 78.6487 62.66 78.4505 62.1819C78.2523 61.7038 77.9617 61.2695 77.5955 60.9038L68.3892 51.6975C67.3242 50.6325 66.9905 49.0613 67.3242 47.595C67.6817 46.035 67.863 44.4475 67.868 42.8325C67.868 32.2125 60.8292 24.1313 50.618 21.2138L16.2792 11.4075C15.6032 11.2126 14.8874 11.2024 14.2061 11.3779C13.5248 11.5535 12.903 11.9083 12.4053 12.4056C11.9077 12.9029 11.5523 13.5244 11.3763 14.2056C11.2002 14.8867 11.2099 15.6026 11.4042 16.2788" stroke="#334EAC" stroke-width="8" stroke-linecap="round" stroke-linejoin="round"/>
</svg>
